<svg xmlns="http://www.w3.org/2000/svg" id="Layer_2" data-name="Layer 2" viewBox="0 0 211.37 56.13"><defs><style>      .cls-1 {        fill: #ce202f;      }      .cls-1, .cls-2 {        stroke-width: 0px;      }      .cls-2 {        fill: #fff;      }    </style></defs><g id="Layer_1-2" data-name="Layer 1"><g><g><g><path class="cls-2" d="M57.41,50.31l-3.35-3.39c3.85-.79,6.37-3.39,6.37-8.44v-20.61h5.21v21.02c0,6.95-4.51,10.64-8.24,11.42Z"></path><path class="cls-2" d="M86.5,44.81c-6.21,0-11.09-3.64-11.09-9.93v-17.01h5.21v16.6c0,3.52,2.11,5.79,5.96,5.79s5.96-2.28,5.96-5.79v-16.6h5.09v17.01c0,6.25-4.88,9.93-11.13,9.93Z"></path><path class="cls-2" d="M176.94,44.27l-7.7-10.97h-2.36v10.97h-5.09v-26.4h8.81c4.1,0,8.24,2.73,8.24,7.7,0,3.31-1.95,5.67-4.35,6.7l8.69,12h-6.25ZM169.78,22.21h-2.9v6.95h2.9c1.99,0,3.93-1.08,3.93-3.48s-1.95-3.48-3.93-3.48Z"></path><path class="cls-2" d="M189.69,44.27v-26.4h14.69v4.34h-9.52v6.62h7.91v4.39h-7.91v6.7h10.89v4.35h-16.06Z"></path><path class="cls-2" d="M118.23,44.27l9.91-26.4h-4.93l-4.51,12.13c-.66,1.82-1.37,4.01-1.94,6.08h-.08c-.62-2.11-1.32-4.3-1.99-6.08l-4.51-12.13h-5.38l9.95,26.4h3.49Z"></path><path class="cls-2" d="M140.73,17.86l-10.68,26.4h4.97l2.52-6.37h9.35l2.52,6.37h5.21l-10.73-26.4h-3.17ZM139.03,33.8l2.19-5.67c.33-.79.7-1.86.95-2.86h.08c.25.99.62,2.07.95,2.86l2.19,5.67h-6.37Z"></path></g><g><path class="cls-1" d="M11.91,18.83v25.33h0c-6.58-.03-11.91-5.38-11.91-11.97V11.97h11.91v6.86Z"></path><path class="cls-1" d="M11.91,0v11.97h11.91v20.22c0,6.59-5.33,11.94-11.91,11.97v11.97c13.2-.03,23.89-10.74,23.89-23.94V0H11.91Z"></path></g></g><path class="cls-2" d="M207.02,20.22c0-.39.1-.75.29-1.08s.46-.6.8-.8.7-.29,1.09-.29.75.1,1.08.29.6.46.8.8.29.7.29,1.09-.09.74-.28,1.07-.45.6-.79.8-.71.3-1.11.3-.77-.1-1.1-.3-.6-.47-.79-.8-.28-.69-.28-1.07ZM207.32,20.22c0,.33.08.65.25.94s.4.52.69.69.6.25.93.25.65-.08.93-.25.52-.39.68-.68.25-.6.25-.94-.08-.65-.25-.93-.39-.52-.68-.68-.6-.25-.94-.25-.65.08-.93.25-.52.39-.68.68-.25.6-.25.94ZM210.07,19.69c0,.15-.04.29-.12.41s-.2.21-.35.26l.69,1.14h-.49l-.6-1.02h-.39v1.02h-.43v-2.58h.75c.32,0,.55.06.7.19s.22.32.22.57ZM208.82,20.13h.31c.15,0,.28-.04.37-.12s.14-.18.14-.31c0-.14-.04-.25-.12-.31s-.21-.09-.39-.09h-.31v.83Z"></path></g></g></svg>